<svg xmlns="http://www.w3.org/2000/svg" width="50" height="50">
 <!-- Created with Method Draw - http://github.com/duopixel/Method-Draw/ -->
 <g>
  <title>background</title>
  <rect fill="#fff" id="canvas_background" height="52" width="52" y="-1" x="-1"/>
  <g display="none" overflow="visible" y="0" x="0" height="100%" width="100%" id="canvasGrid">
   <rect fill="url(#gridpattern)" stroke-width="0" y="0" x="0" height="100%" width="100%"/>
  </g>
 </g>
 <g>
  <title>Layer 1</title>
  <rect stroke="#d2c08c" id="svg_2" height="48.874163" width="48.874164" y="0.680105" x="0.687917" stroke-width="1.5" fill="#d2c08c"/>
  <path stroke="#9e8c58" d="m8.98506,15.422169c0,0.138659 0.071368,0.252891 0.146778,0.554661c0.03372,0.134953 -0.030849,0.288215 0.146769,0.693333c0.125598,0.286462 0.146778,0.554661 0.146778,0.831992c0,0.416002 0,0.693333 0,1.109335c0,0.416002 -0.072425,0.815154 -0.146778,1.247994c-0.070531,0.410625 -0.146769,0.831992 -0.293547,1.247994c-0.146769,0.416002 -0.052733,0.839158 -0.146769,1.386665c-0.074353,0.43284 -0.219203,0.953813 -0.293556,1.386654c-0.047018,0.273754 -0.146769,0.693333 -0.146769,1.109335c0,0.138659 0,0.41599 0,0.693333c0,0.138659 0,0.41599 0,0.554661c0,0.138659 0.067334,0.234817 0.146769,0.416002c0.056168,0.128105 0.146778,0.277331 0.146778,0.554661c0,0.138659 0.146778,0.277331 0.146778,0.41599c0,0.138671 0.214112,0.234829 0.293547,0.416002c0.056168,0.128116 0.071368,0.252891 0.146769,0.554661c0.067449,0.269918 0.146778,0.554673 0.146778,0.832004c0,0.138659 -0.112336,0.437112 0,0.693333c0.079435,0.181173 0.146778,0.41599 0.146778,0.554661c0,0.138659 0,0.416002 0,0.693333c0,0.277331 0,0.693333 0,1.109323c0,0.277331 0,0.554661 0,0.832004c0,0.277331 0,0.41599 0,0.693333c0,0.138659 0,0.277331 0,0.41599c0,0.138671 0,0.277331 0,0.416002c0,0.138659 0,0.277331 0,0.41599c0,0.138671 0,0.277342 0,0.416002c0,0.138671 0,0.277331 0,0.416002c0,0.138671 0.146769,0.138671 0.146769,0.277331c0,0.138671 0,0.277331 0,0.416002c0,0.138659 0.146778,0.138659 0.146778,0.277331c0,0.138659 0.146769,0.277331 0.146769,0.41599c0,0.138671 0.218146,0.252903 0.293556,0.554673c0.03372,0.134953 0.113049,0.281037 0.146769,0.416002c0.07541,0.30177 0.214112,0.373489 0.293547,0.554661c0.056177,0.128105 0.011175,0.224263 0.146778,0.277331c0.19177,0.075048 0.248555,0.340954 0.440325,0.416002c0.135602,0.053068 0.33654,0.040607 0.440325,0.138659c0.103785,0.098052 0.116977,0.174242 0.293547,0.277331c0.394822,0.230534 0.880641,0.416002 1.761291,0.693333c0.440325,0.138671 0.862825,0.207095 1.320975,0.277331c0.28976,0.044431 0.440325,0 0.587094,0c0.146778,0 0.275723,-0.068424 0.733872,-0.138659c0.434636,-0.066647 0.883943,-0.189504 1.320975,-0.138671c0.60063,0.069859 1.027419,0.138671 1.467744,0.138671c0.293547,0 0.737659,0.04442 1.027419,0c0.458149,-0.070248 0.587094,-0.138671 0.733872,-0.138671c0.146778,0 0.414451,0.067435 0.733872,0.138671c0.285692,0.063717 0.71005,0.138659 1.174197,0.138659c0.464138,0 0.761172,-0.096029 1.027419,-0.277331c0.168389,-0.114667 0.372621,-0.222757 0.733872,-0.416002c0.52662,-0.281684 0.882543,-0.255115 1.027419,-0.277331c0.458149,-0.070236 0.88065,-0.138659 1.320975,-0.138659c0.293547,0 0.587094,0 1.027419,0c0.293547,0 0.440325,0 0.587094,0c0.293556,0 0.440325,0.138659 0.88065,0.138659c0.440325,0 0.708007,0.206095 1.027428,0.277331c0.285692,0.063717 0.293547,0.138671 0.440316,0.138671c0.146778,0 0.444253,-0.031853 0.587103,0c0.319412,0.071236 0.711213,0.308419 1.174197,0.277331c0.327364,-0.02198 0.707998,-0.206095 1.027419,-0.277331c0.142841,-0.031853 0.271936,-0.162675 0.440325,-0.277331c0.532494,-0.362593 1.027419,-0.554661 1.320966,-0.831992c0.146778,-0.138671 0.293547,-0.277342 0.440325,-0.416002c0.293547,-0.277331 0.587094,-0.554661 0.880641,-0.693333c0.293556,-0.138671 0.440325,-0.277331 0.587103,-0.416002c0.293547,-0.277331 0.784685,-0.513819 1.027419,-0.831992c0.191902,-0.251538 0.3952,-0.441795 0.587103,-0.693333c0.242734,-0.318173 0.440325,-0.416002 0.587094,-0.554661c0.293547,-0.277331 0.417904,-0.699063 0.587103,-1.247994c0.129764,-0.421015 0.146769,-0.693333 0.146769,-1.109335c0,-0.277331 -0.072425,-0.676483 -0.146769,-1.109323c-0.07054,-0.410625 -0.124357,-0.837734 -0.293556,-1.386665c-0.129764,-0.421015 -0.365972,-0.815154 -0.440316,-1.247994c-0.047027,-0.273754 0.071368,-0.391562 0.146769,-0.693333c0.03372,-0.134953 0.067343,-0.234817 0.146778,-0.416002c0.056168,-0.128105 0.174078,-0.2347 0.440325,-0.41599c0.336778,-0.229334 0.612501,-0.534246 0.733872,-0.693333c0.191894,-0.251538 0.226107,-0.423415 0.293547,-0.693333c0.075401,-0.30177 0.246529,-0.55825 0.293547,-0.831992c0.074344,-0.43284 0,-0.832004 0,-1.247994c0,-0.416002 -0.072425,-0.676494 -0.146778,-1.109335c-0.070531,-0.410625 -0.071368,-0.668893 -0.146769,-0.970663c-0.06744,-0.269918 0.03084,-0.704205 -0.146778,-1.109323c-0.125598,-0.286473 -0.219608,-0.541883 -0.293547,-1.109335c-0.035869,-0.275248 -0.115929,-0.565534 -0.293547,-0.970663c-0.251197,-0.572923 -0.51275,-0.815154 -0.587103,-1.247994c-0.047018,-0.273754 -0.146769,-0.416002 -0.146769,-0.554661c0,-0.277331 0,-0.416002 0,-0.554661c0,-0.277342 0,-0.416002 0,-0.693333c0,-0.138671 0,-0.277331 0,-0.554661c0,-0.138671 0,-0.416002 0,-0.693333c0,-0.277331 0,-0.693333 0,-0.970663c0,-0.416002 0.06744,-0.700758 0,-0.970663c-0.07541,-0.30177 -0.218146,-0.530222 -0.293547,-0.832004c-0.067449,-0.269906 -0.101653,-0.719114 -0.293556,-0.970663c-0.121362,-0.159087 -0.36089,-0.373489 -0.440325,-0.554661c-0.056168,-0.128105 -0.148663,-0.116456 -0.293547,-0.138659c-0.458149,-0.070248 -1.032923,-0.192622 -1.761291,-0.277331c-0.60063,-0.069859 -1.614522,-0.277342 -2.054838,-0.416002c-0.440325,-0.138671 -0.88065,-0.277331 -1.174197,-0.277331c-0.146778,0 -0.304722,-0.053068 -0.440325,0c-0.19177,0.075037 -0.293547,0.138659 -0.587103,0.138659c-0.440325,0 -1.029418,-0.09291 -1.614513,-0.138659c-0.889756,-0.069577 -1.179199,-0.043019 -2.201625,-0.138671c-0.744757,-0.069671 -1.320966,-0.138659 -1.90806,-0.277331c-0.587103,-0.138671 -1.033108,-0.210696 -1.467744,-0.277331c-0.458149,-0.070236 -0.88065,-0.138671 -1.320975,-0.138671c-0.440325,0 -0.880641,0 -1.174197,0c-0.587094,0 -1.174197,0 -1.761291,0c-0.587094,0 -1.310081,0.069 -2.054847,0.138671c-0.730296,0.068318 -1.45685,0.068989 -2.201616,0.138659c-0.438176,0.040995 -0.745646,0.04309 -1.174188,0.138671c-0.319421,0.071236 -0.594958,0.213614 -0.88065,0.277331c-0.319421,0.071236 -0.462667,0.171206 -0.733872,0.277331c-0.19177,0.075048 -0.395333,0.340954 -0.587103,0.416002c-0.271196,0.106124 -0.483309,0.040619 -0.587094,0.138671c-0.103785,0.098041 -0.101777,0.202282 -0.293547,0.277331c-0.135602,0.053056 -0.33654,0.040607 -0.440325,0.138659c-0.103785,0.098052 -0.189762,0.040619 -0.293547,0.138671c-0.103785,0.098052 -0.157953,0.085603 -0.293547,0.138659c-0.19177,0.075048 -0.248555,0.202294 -0.440325,0.277331c-0.135602,0.053068 -0.33654,0.040619 -0.440325,0.138671c-0.103785,0.098052 -0.214112,0.234817 -0.293547,0.416002c-0.056168,0.128105 -0.09061,0.149214 -0.146778,0.277331c-0.079435,0.181173 -0.101777,0.340954 -0.293547,0.416002c-0.135602,0.053056 -0.214112,0.096146 -0.293547,0.277331c-0.056168,0.128105 -0.189771,0.179278 -0.293556,0.277331c-0.103785,0.098052 -0.042985,0.179278 -0.146769,0.277331c-0.103785,0.098052 -0.146778,0.138671 -0.146778,0.277331c0,0.138671 0,0.277331 0,0.416002c0,0.138659 -0.056168,0.287886 0,0.41599c0.079435,0.181185 0.146778,0.277342 0.293547,0.138671l0,-0.138671" id="svg_46" fill-opacity="null" stroke-opacity="null" stroke-width="1.5" fill="none"/>
  <rect stroke="#9e8c58" id="svg_47" height="20.33326" width="26.499905" y="13.239623" x="9.583391" stroke-width="1.5" fill="#9e8c58"/>
  <rect id="svg_48" height="4.333318" width="26.666572" y="33.406218" x="9.916723" stroke-width="1.5" stroke="#9e8c58" fill="#9e8c58"/>
  <rect id="svg_49" height="24.999911" width="3.666654" y="11.406296" x="35.416632" stroke-width="1.5" stroke="#9e8c58" fill="#9e8c58"/>
  <rect id="svg_50" height="3.999986" width="19.833263" y="10.239633" x="14.416707" stroke-width="1.5" stroke="#9e8c58" fill="#9e8c58"/>
  <rect stroke="#9e8c58" id="svg_51" height="1.999993" width="19.999929" y="37.57287" x="14.583373" stroke-width="1.5" fill="#9e8c58"/>
  <rect id="svg_52" height="7.833305" width="1.666661" y="19.239601" x="38.749954" fill-opacity="null" stroke-opacity="null" stroke-width="1.5" stroke="#9e8c58" fill="#9e8c58"/>
  <rect transform="rotate(-30.948902130126953 12.916711807250975,12.656291961669918) " id="svg_53" height="1.499995" width="2.666657" y="11.906294" x="11.583384" fill-opacity="null" stroke-opacity="null" stroke-width="1.5" stroke="#9e8c58" fill="#9e8c58"/>
  <rect transform="rotate(29.528684616088867 13.58337593078612,38.40620422363282) " id="svg_54" height="1.666661" width="3.666654" y="37.572869" x="11.75005" fill-opacity="null" stroke-opacity="null" stroke-width="1.5" stroke="#9e8c58" fill="#9e8c58"/>
  <rect stroke="#b8dc70" id="svg_55" height="50.666486" width="3.83332" y="0.239669" x="-0.58324" stroke-width="1.5" fill="#b8dc70"/>
  <rect stroke="#b8dc70" id="svg_56" height="50.666486" width="3.999986" y="-0.260329" x="46.249929" stroke-width="1.5" fill="#b8dc70"/>
  <rect stroke="#b8dc70" transform="rotate(90.15900421142578 24.91435623168945,1.5732231140136732) " id="svg_57" height="50.666486" width="3.66711" y="-23.760021" x="23.080801" stroke-width="1.5" fill="#b8dc70"/>
  <rect stroke="#b8dc70" transform="rotate(90.15900421142578 25.084722518920902,48.572597503662095) " id="svg_58" height="50.666486" width="3.000448" y="23.239356" x="23.584501" stroke-width="1.5" fill="#b8dc70"/>
  <path d="m3.916744,42.572853c0,0 0,0 0,0c0,0.166664 0.166666,0.333332 0.166666,0.499996c0,0.166668 0.247708,0.303959 0.333332,0.666664c0.038292,0.162209 0.243133,0.282238 0.333332,0.5c0.063779,0.153976 0.048816,0.215481 0.166667,0.333332c0.117849,0.117847 0.048817,0.382149 0.166666,0.499996c0.117851,0.117851 0.243133,0.115574 0.333332,0.333332c0.063781,0.15398 0.048817,0.215485 0.166666,0.333332c0.117851,0.117851 0.166666,0.166668 0.333332,0.166668c0.166666,0 0.166666,0.166664 0.333332,0.166664c0.166666,0 0.166666,0.166668 0.333333,0.166668c0.166666,0 0.333332,0.333332 0.333332,0.166664c0,-0.166668 -0.382148,0.117851 -0.499999,0c-0.117849,-0.117847 -0.179353,-0.102882 -0.333332,-0.166664c-0.217761,-0.090199 -0.333332,-0.166668 -0.499998,-0.166668c-0.166666,0 -0.215483,-0.048817 -0.333332,-0.166664c-0.117851,-0.117851 -0.333332,0 -0.499999,0c-0.166666,0 -0.282238,-0.076469 -0.499998,-0.166668c-0.153979,-0.063782 -0.215481,-0.048813 -0.333332,-0.166664c-0.117852,-0.117851 -0.166666,-0.166668 -0.333332,-0.166668l-0.166666,0l-0.166666,-0.166664l0,0.166664" id="svg_63" fill-opacity="null" stroke-opacity="null" stroke-width="1.5" stroke="#b8dc70" fill="none"/>
  <path d="m42.749939,46.239506c0.166668,0 0.333332,-0.166664 0.5,-0.333332c0.166668,-0.166668 0.34602,-0.269554 0.499996,-0.333332c0.217762,-0.090199 0.333332,-0.166664 0.5,-0.333332c0.166668,-0.166668 0.269554,-0.179356 0.333332,-0.333332c0.090199,-0.217762 0.333336,-0.333332 0.666664,-0.666664c0.166664,-0.166668 0.409798,-0.282238 0.499996,-0.5c0.063778,-0.153976 0.166668,-0.166664 0.166668,-0.333332c0,-0.166664 -0.166668,-0.166664 -0.166668,0c0,0.166668 -0.125935,0.335831 -0.166664,0.666664c-0.083961,0.682034 -0.247711,0.970623 -0.333332,1.333328c-0.038292,0.162209 -0.048817,0.215481 -0.166668,0.333332c-0.117851,0.117851 -0.215481,0.048817 -0.333332,0.166668c-0.117847,0.117847 -0.166664,0.166664 -0.333332,0.166664c-0.166664,0 -0.282238,0.076469 -0.499996,0.166668c-0.15398,0.063782 -0.333332,0 -0.5,0c-0.166664,0 -0.333332,0 -0.499996,0c-0.166668,0 -0.5,0 -0.666664,0c-0.166668,0 -0.333332,0.166664 -0.5,0.166664c-0.166664,0 -0.333332,0 -0.5,0c-0.166664,0 -0.333332,0 -0.333332,0.166668l-0.166664,0" id="svg_64" fill-opacity="null" stroke-opacity="null" stroke-width="1.5" stroke="#b8dc70" fill="none"/>
  <path d="m43.749935,3.57299c0,0 0.048817,0.048815 0.166668,0.166666c0.117847,0.117849 0.333332,0.166667 0.499996,0.333332c0.166668,0.166667 0.382149,0.21548 0.5,0.333332c0.117851,0.117851 0.215481,0.21548 0.333332,0.333333c0.117851,0.117851 0.166664,0.166666 0.166664,0.333332c0,0.166666 0.048817,0.21548 0.166668,0.333332c0.117851,0.117851 0.076466,0.282239 0.166664,0.499998c0.063782,0.153979 0.048817,0.21548 0.166668,0.333332c0.117851,0.117851 0.166664,0.333333 0.166664,0.499999c0,0.166666 -0.048817,0.117849 -0.166664,0c-0.117851,-0.117851 -0.166668,-0.333332 -0.166668,-0.499999c0,-0.166666 0.117851,-0.382147 0,-0.499998c-0.117847,-0.117849 -0.102882,-0.179353 -0.166664,-0.333332c-0.090199,-0.217761 -0.048817,-0.382147 -0.166668,-0.499998c-0.117847,-0.117849 -0.166664,-0.166665 -0.333332,-0.333333c-0.166664,-0.166665 -0.333332,-0.166667 -0.499996,-0.333332c-0.166668,-0.166667 -0.215481,-0.215481 -0.333332,-0.333332c-0.117851,-0.117852 -0.215481,-0.048815 -0.333332,-0.166666c-0.117851,-0.117852 -0.282238,-0.076467 -0.5,-0.166666c-0.153976,-0.063779 -0.282238,-0.076467 -0.499996,-0.166666c-0.15398,-0.063781 -0.215481,-0.048815 -0.333332,-0.166666c-0.117851,-0.117852 -0.117851,0.048815 0,0.166666c0.117847,0.117849 0.382149,0.048817 0.499996,0.166666c0.117851,0.117851 0.048817,0.215481 0.166668,0.333332c0.117847,0.117849 0.215481,0.048815 0.333332,0.166666c0.117847,0.117849 0.382149,0.048817 0.499996,0.166666c0.117851,0.117851 0.115574,0.243133 0.333332,0.333332c0.15398,0.063781 0.215485,0.048817 0.333332,0.166667c0.117851,0.117851 0.102886,0.179353 0.166668,0.333332c0.090199,0.217759 0.333332,0.333332 0.333332,0.499998c0,0.166666 0.048813,0.382147 0.166664,0.499998c0.117851,0.117852 0.102886,0.179353 0.166668,0.333333c0.090199,0.217759 0.048813,0.382147 0.166664,0.499998c0.117851,0.117852 0.166668,0.166666 0.166668,0.333332l0,0.166666" id="svg_65" fill-opacity="null" stroke-opacity="null" stroke-width="1.5" stroke="#b8dc70" fill="none"/>
  <path d="m3.583412,7.40631c0,-0.166666 0.247709,-0.470623 0.333332,-0.83333c0.038292,-0.162208 0.243133,-0.448905 0.333332,-0.666665c0.06378,-0.153979 0.048815,-0.215481 0.166666,-0.333332c0.117851,-0.117851 0.102886,-0.179353 0.166666,-0.333332c0.090199,-0.21776 0.215482,-0.215481 0.333333,-0.333332c0.117851,-0.117851 0.179353,-0.102886 0.333332,-0.166666c0.21776,-0.090199 0.215481,-0.215482 0.333332,-0.333333c0.117851,-0.117851 0.166666,-0.166666 0.333332,-0.166666c0.166666,0 0.166666,-0.166666 0.333332,-0.166666c0.166666,0 0.282239,-0.076467 0.499999,-0.166666c0.153979,-0.06378 0.499998,0.166666 0.499998,0c0,-0.166666 -0.333332,0 -0.499998,0c-0.333333,0 -0.666665,0 -0.999997,0c-0.166666,0 -0.499998,0 -0.666664,0c-0.166666,0 -0.282239,0.076467 -0.499999,0.166666c-0.153979,0.06378 -0.215481,0.048815 -0.333332,0.166666c-0.117851,0.117851 -0.333332,0 -0.333332,0.166666l-0.166666,0" id="svg_66" fill-opacity="null" stroke-opacity="null" stroke-width="1.5" stroke="#b8dc70" fill="none"/>
  <path d="m1.083421,15.239615c0,0 -0.166666,0 -0.166666,0.166666c0,0.166666 0,0.333332 0,0.499998c0,0.166667 -0.127561,0.358706 0,0.666665c0.090199,0.21776 0.048815,0.382147 0.166666,0.499998c0.117851,0.117851 0.166666,0.166666 0.166666,0.333332c0,0.166666 0,0.333332 0,0.666664c0,0.166666 0,0.333332 0,0.666664c0,0.166666 0,0.333332 0,0.499998c0,0.166666 0.076467,0.282238 0.166666,0.499998c0.06378,0.15398 0.166666,0.166666 0.166666,0.333332c0,0.166666 0.114876,0.346708 0,0.83333c-0.085624,0.362707 -0.090082,0.508915 -0.166666,0.83333c-0.085624,0.362707 -0.166666,0.499998 -0.166666,0.666666c0,0.166666 0,0.333332 0,0.499998c0,0.166666 0.166666,0.166666 0.166666,0c0,-0.166666 0.248909,-0.813091 0.333332,-1.33333c0.080091,-0.493542 0,-0.999996 0,-1.499994c0,-0.499998 0,-0.666664 0,-0.83333c0,-0.166666 0.166666,-0.333332 0.166666,-0.499998c0,-0.166666 0,-0.333332 0,-0.499998c0,-0.166666 0,-0.333332 0,-0.499998c0,-0.166666 0,-0.333332 0,-0.499998c0,-0.166666 0,-0.333332 0,-0.499998c0,-0.166666 -0.076467,-0.282238 -0.166666,-0.499998c-0.06378,-0.15398 0,-0.333333 0,-0.499999c0,-0.166666 -0.117851,-0.382148 0,-0.499998c0.117851,-0.11785 0.166666,-0.166666 0.166666,-0.333332c0,-0.166666 -0.048815,-0.215482 -0.166666,-0.333332c-0.117851,-0.11785 -0.076467,-0.282238 -0.166666,-0.499998c-0.06378,-0.153979 -0.166666,-0.333332 -0.166666,-0.166666c0,0.166666 0.076467,0.282238 0.166666,0.499998c0.06378,0.153979 -0.215482,0.284516 -0.333332,0.166666c-0.117851,-0.11785 -0.166666,-0.166666 -0.166666,0c0,0.166666 0,0.333332 0,0.499998c0,0.166666 0,0 0,-0.166666c0,-0.166666 0,-0.499998 0,-0.83333c0,-0.166666 0,-0.499998 0,-0.666664c0,-0.166666 0.028849,-0.024545 0.166666,0.166666c0.217908,0.302331 0.256748,0.842247 0.333332,1.166662c0.171247,0.725414 0.333332,0.999996 0.499998,1.166662c0.166666,0.166667 0.039105,0.358706 0.166666,0.666665c0.090199,0.21776 0.166666,0.333332 0.166666,0.499998c0,0.166666 -0.166666,0.499998 -0.166666,0.666664c0,0.166666 0,0.333332 0,0.499998c0,0.166666 -0.076467,0.282238 -0.166666,0.499998c-0.127561,0.307959 0.06378,0.512684 0,0.666664c-0.090199,0.21776 -0.166666,0.333332 -0.166666,0.666664c0,0.166666 0,0.333332 0,0.499998c0,0.166666 0.166666,0.333332 0.166666,0.666664c0,0.166666 0,0.333332 0,0.666664c0,0.166666 0,0.333332 0,0.666666c0,0.166666 0,0.333332 0,0.499998c0,0.166666 -0.048815,0.215481 -0.166666,0.333332c-0.117851,0.117851 0,0.333332 0,0.499998c0,0.166666 -0.166666,0.166666 -0.166666,0.333332c0,0.166666 0,0.333332 0,0.499998c0,0.166666 0,0.333332 0,0.499998c0,0.166666 -0.048815,0.215481 -0.166666,0.333332c-0.117851,0.117851 -0.048815,0.215481 -0.166666,0.333332c-0.117851,0.117851 0.048815,0.215481 0.166666,0.333332c0.117851,0.117851 -0.117851,0.382147 0,0.499998c0.117851,0.117851 0.166666,0.166666 0.166666,0.333332c0,0.166666 0,0.333332 0,0.499998l0.166666,0" id="svg_67" fill-opacity="null" stroke-width="1.5" stroke="#1d771d" fill="none"/>
  <path d="m0.583423,4.906319c0,0 0,-0.166666 0,-0.333333c0,-0.166666 0,-0.333332 0,-0.499998c0,-0.166666 0.166666,-0.166666 0.166666,-0.166666c0.166666,-0.166666 0.333332,-0.166666 0.499998,-0.166666c0.166666,0 0.166666,-0.166666 0.166666,-0.333332c0,-0.166666 0.127561,-0.358706 0,-0.666664c-0.090199,-0.21776 0,-0.166666 0.166666,-0.166666c0.166666,0 0.346019,0.06378 0.499998,0c0.21776,-0.090199 0.333332,-0.166666 0.499998,-0.166666c0.166666,0 0.282238,-0.076467 0.499998,-0.166666c0.15398,-0.06378 0.215482,-0.048815 0.333332,-0.166666c0.117851,-0.117851 0.382147,0.117851 0.499998,0c0.117851,-0.117851 0.048815,-0.215481 0.166666,-0.333332c0.117851,-0.117851 0.166666,-0.166666 0.333332,-0.166666c0.166666,0 0.382148,-0.117851 0.499999,0c0.117851,0.117851 0.215481,0.048815 0.333332,0.166666c0.117851,0.117851 0.215481,0.048815 0.333332,0.166666c0.117851,0.117851 0.179353,0.102886 0.333332,0.166666c0.21776,0.090199 0.282238,0.243133 0.499998,0.333332c0.15398,0.063781 0.215482,-0.048815 0.333333,-0.166666c0.117851,-0.117851 0.215481,-0.048815 0.333332,-0.166666c0.117851,-0.117851 0,-0.333332 0,-0.499998l0.166666,0" id="svg_68" fill-opacity="null" stroke-width="1.5" stroke="#1d771d" fill="none"/>
  <path d="m13.416711,1.739664c0.166666,-0.166666 0.333332,-0.166666 0.499998,-0.166666c0.666664,0 1.499994,-0.166666 1.833326,-0.166666c0.333333,0 0.505111,-0.152051 0.999997,-0.333332c0.842762,-0.30871 1.64642,-0.582241 2.166658,-0.666664c0.164515,-0.026697 0.333332,0.166666 0.499998,0.333332c0.333332,0.333332 0.528847,0.808785 0.666664,0.999996c0.217907,0.302331 0.333332,0.499998 0.499998,0.666664c0.166666,0.166666 0.333332,0.333332 0.499998,0.333332c0.166666,0 0.333332,-0.166666 0.499998,-0.166666c0.166666,0 0.328873,-0.128374 0.166666,-0.166666c-0.362707,-0.085624 -0.83333,-0.166666 -1.66666,-0.333332c-0.83333,-0.166666 -1.313087,-0.415575 -1.833326,-0.499998c-0.164515,-0.026697 -0.382147,-0.048815 -0.499998,-0.166666c-0.117851,-0.117851 -0.166666,-0.166666 -0.333332,-0.166666c-0.333332,0 -0.666664,0 -0.999996,0c-0.166666,0 -0.666665,0.166666 -0.999997,0.166666c-0.166666,0 -0.333332,0 -0.499998,0c-0.166666,0 -0.284516,0.215481 -0.166666,0.333332c0.11785,0.117851 0.166666,0.166666 0.333332,0.166666c0.166666,0 0.996221,0.182573 1.666661,0.333332c0.82913,0.186443 1.179348,0.102886 1.333328,0.166666c0.21776,0.090199 0.333332,0.166666 0.499998,0.166666c0.166666,0 0.333332,0.166666 0.499998,0.166666c0.333332,0 0.499998,-0.166666 0.666664,-0.166666c0.166666,0 0.385,0.110418 0.83333,-0.166666c0.2005,-0.123915 0.282238,-0.243133 0.499998,-0.333332c0.15398,-0.06378 0.333332,0 0.499998,0c0.166666,0 0.333332,-0.166666 0.499998,-0.166666c0.166666,0 0.282238,-0.076467 0.499998,-0.166666c0.15398,-0.063781 0.215483,-0.048815 0.333334,-0.166666c0.117851,-0.117851 0.338915,-0.123888 0.499998,-0.166666c1.298691,-0.344886 1.346714,-1.062732 1.999992,-1.333329c0.15398,-0.06378 0.215481,0.048815 0.333332,0.166666c0.117851,0.117851 0.4098,0.115572 0.499998,0.333332c0.06378,0.153979 0.048815,0.215481 0.166666,0.333332c0.117851,0.117851 0.048815,0.215482 0.166666,0.333332c0.117851,0.117851 0.166666,0.333332 0.333332,0.499998c0.166666,0.166666 0.215481,0.215481 0.333332,0.333332c0.117851,0.117851 -0.048815,0.117851 -0.166666,0c-0.117851,-0.117851 -0.333332,0 -0.666664,0c-0.166666,0 -0.333332,0 -0.499998,0c-0.333332,0 -0.499998,-0.166666 -0.666664,-0.166666c-0.333332,0 -0.499998,0 -0.666664,0c-0.166666,0 -0.282238,0.076467 -0.499998,0.166666c-0.15398,0.06378 -0.333332,0 -0.499998,0c-0.166666,0 -0.284517,0.048815 -0.166666,0.166666c0.117851,0.117851 0.166666,0.333332 0.333332,0.333332c0.166666,0 0.342249,0.24325 0.666664,0.166666c0.362707,-0.085624 0.666664,-0.166666 0.83333,-0.166666c0.166666,0 0.166666,-0.166666 0.333332,-0.166666c0.333332,0 0.61557,-0.076467 0.83333,-0.166666c0.15398,-0.06378 0.333332,0 0.499998,0c0.166666,0 0.333332,0 0.499998,0c0.166666,0 0.166666,-0.166666 0.333332,-0.166666l0.166666,0l0.166666,0" id="svg_69" fill-opacity="null" stroke-width="1.5" stroke="#1d771d" fill="none"/>
  <polyline stroke-linecap="round" id="svg_70" points="25.583333799572458,0.7396671663054661 25.583333799572458,0.7396671663054661 " fill-opacity="null" stroke-width="1.5" stroke="#1d771d" fill="none"/>
  <path d="m32.749973,1.072999c0,0 0.012688,0.102885 0.166668,0.166666c0.217758,0.090199 0.450443,0.256893 0.999996,0.499998c0.628437,0.278001 1.137291,0.247709 1.499996,0.333332c0.162205,0.038291 0.504299,0.113273 0.833328,0.166666c0.520241,0.084423 0.833332,0.166666 1.166664,0.166666c0,0 0.137291,-0.081043 0.499996,-0.166666c0.162209,-0.038292 0.333332,-0.166666 0.5,-0.166666c0.166664,0 0.166664,-0.166666 0.333332,-0.166666c0.166664,0 0.215481,-0.048815 0.333332,-0.166666c0.117847,-0.117849 0.333332,0 0.666664,0c0.333332,0 0.448902,0.076467 0.666664,0.166666c0.153976,0.063779 0.337791,-0.038292 0.499996,0c0.362705,0.085624 0.5,0.333332 0.666668,0.333332c0.499996,0 1.499992,-0.166666 1.999992,-0.166666c0.333332,0 0.499996,0 0.333332,0c-0.166668,0 -0.333332,0 -0.5,0c-0.166664,0 -0.333332,0 -0.499996,0c-0.166668,0 -0.333332,0 -0.5,0c-0.166664,0 -0.333332,0 -0.833328,0c-0.5,0 -1,0 -1.499996,0c-0.166668,0 -0.470627,-0.081043 -0.833332,-0.166666c-0.324413,-0.076584 -0.817959,-0.24937 -1.499992,-0.333332c-0.496254,-0.061092 -0.999996,0 -1.166664,0c-0.166664,0 -0.333332,0 -0.833328,0c-0.333332,0 -0.666664,0 -0.833332,0c-0.166664,0 -0.448902,-0.076467 -0.666664,-0.166666c-0.461941,-0.19134 -0.833332,-0.166666 -1.166664,-0.166666c-0.499996,0 -0.833328,-0.166666 -1.16666,-0.166666c-0.333332,0 -0.784515,0.048815 -0.666664,0.166666c0.117851,0.117851 0.503168,0.324106 0.999996,0.499998c1.342354,0.475234 1.984623,0.582702 2.666656,0.666664c0.661671,0.081455 1.171124,0.038291 1.333328,0c0.362705,-0.085624 0.5,-0.166666 0.666664,-0.166666c0.166668,0 0.5,-0.166666 0.999996,-0.166666c0.333332,0 0.342251,-0.090082 0.666664,-0.166666c0.362705,-0.085624 0.508919,-0.090082 0.833332,-0.166666c0.362709,-0.085624 0.666664,-0.166666 0.999996,-0.166666c0.499996,0 0.666664,0 0.833328,0c0.166668,0 0.333336,0 0.666668,0c0.333332,0 0.499996,0 0.666664,0c0.166664,0 0.451183,-0.048815 0.333332,-0.166666c-0.117851,-0.117852 -0.382149,-0.048814 -0.5,-0.166666c-0.117851,-0.117851 -0.333332,-0.333334 -0.333332,-0.166666c0,0.166668 0.333332,0 0.5,0c0.333332,0 0.448902,0.076467 0.666664,0.166666c0.153976,0.063779 0.215481,0.048815 0.333332,0.166666c0.117847,0.117849 0.382149,-0.117849 0.499996,0c0.117851,0.117851 0.048817,0.215481 0.166668,0.333332c0.117847,0.117849 0.215481,0.048814 0.333332,0.166666c0.117851,0.117851 0.048817,0.215483 0.166664,0.333332c0.117851,0.117851 0,0.333332 0.166668,0.333332c0.166664,0 0.166664,0.166666 0.333332,0.166666l0,-0.166666l0.166664,0" id="svg_71" fill-opacity="null" stroke-width="1.5" stroke="#1d771d" fill="none"/>
  <path d="m48.416584,8.739638c0,0 0,0.166666 0,0.333332c0,0.166667 0,0.333333 0,0.499999c0,0.166666 0,0.333332 0,0.499998c0,0.166666 0,0.499998 0,0.83333c0,0.333332 0,0.499998 0,0.83333c0,0.166666 -0.247707,0.637288 -0.333332,0.999996c-0.076584,0.324416 0,0.833331 0,0.999997c0,0.166666 0.048817,0.21548 0.166668,0.333332c0.117851,0.11785 0,0.333332 0,0.499998c0,0.166666 -0.166668,0 -0.166668,-0.333332c0,-0.666664 0,-1.166662 0,-1.666661c0,-0.333332 0,-0.499998 0,-0.83333c0,-0.166666 -0.166664,-0.333332 -0.166664,-0.666664c0,-0.166666 0.12756,-0.358706 0,-0.666664c-0.090199,-0.217761 -0.166668,-0.333332 -0.166668,-0.666664c0,-0.166666 0.166668,-0.499998 0,-0.499998c-0.166668,0 0.12756,0.358706 0,0.666664c-0.090199,0.217759 -0.166664,0.499998 -0.166664,0.999996c0,0.499998 -0.038292,1.004455 0,1.166662c0.085621,0.362706 0.102882,0.679351 0.166664,0.83333c0.090199,0.217761 0.166668,0.333333 0.166668,0.499999c0,0.166666 0,0.333332 0,0.499998c0,0.333332 0,0.499998 0,0.666664c0,0.166666 -0.081043,0.303956 -0.166668,0.666664c-0.076584,0.324415 0,0.833331 0,1.166663c0,0.166666 0,0.499998 0,0.666664c0,0.166666 0.048817,0.215481 0.166668,0.333332c0.117847,0.117849 0.048813,0.215481 0.166664,0.333332c0.117851,0.117851 0.166668,0.166666 0.166668,0.333332c0,0.166666 0,0.499998 0,0.666664c0,0.166666 -0.166668,0.499998 -0.166668,0.666664c0,0.166666 -0.076466,0.28224 -0.166664,0.499998c-0.063782,0.15398 0,0.333332 0,0.499998c0,0.166666 -0.076469,0.282238 -0.166668,0.499998c-0.12756,0.307959 0,0.499998 0,0.83333c0,0.166666 0.048817,0.215481 0.166668,0.333332c0.117851,0.117851 0,0.333334 0,0.5c0,0.166666 0.166664,0.333332 0.166664,0.499998c0,0.166666 -0.117851,0.382147 0,0.499998c0.117851,0.117851 0.166668,0.166666 0.333332,0.166666l0.166668,0.166666l-0.166668,0.166666" id="svg_72" stroke-width="1.5" stroke="#1d771d" fill="none"/>
  <path d="m48.583252,34.072884c0,0 -0.076469,0.11557 -0.166668,0.333332c-0.063778,0.153976 0,0.499996 0,0.833328c0,0.333332 0,0.5 0,0.666664c0,0.333332 0.166668,0.5 0.166668,0.666664c0,0.166668 0,0.333332 0,0.666664c0,0.166668 0,0.333332 0,0.5c0,0.166664 0,0.666664 0,0.999996c0,0.333332 0,0.833328 0,1.16666c0,0.333332 0,0.666664 0,0.833332c0,0.166664 0,0.5 0,0.666664c0,0.333332 0.166664,0.666664 0.166664,0.833332c0,0.166664 -0.166664,0.499996 -0.166664,0.666664c0,0.333332 -0.10289,0.34602 -0.166668,0.499996c-0.090199,0.217762 -0.102882,0.34602 -0.166664,0.5c-0.090199,0.217758 -0.166668,0.333332 -0.166668,0.499996c0,0.166668 0,0.333332 0,0.5c0,0.166664 0.166668,0.333332 0.166668,0.499996l0,0.166668l0,0.166664" id="svg_73" stroke-width="1.5" stroke="#1d771d" fill="none"/>
  <path d="m42.916607,48.739498c-0.166668,0 -0.333332,0 -0.5,0c-0.166664,0 -0.479755,-0.082245 -0.999996,-0.166668c-0.329029,-0.053394 -0.833332,-0.166668 -0.999996,-0.166668c-0.333332,0 -0.5,0 -0.833332,0c-0.499996,0 -1.170067,0.082478 -2.166656,0c-1.010334,-0.083618 -2.154816,-0.333332 -3.333321,-0.333332c-1.178509,0 -2.340214,0.307869 -2.99999,0.5c-0.506025,0.147358 -1.035276,0.285686 -1.499996,0.666664c-0.364555,0.298862 -0.666662,0.5 -0.999996,0.833332c-0.166666,0.166664 -0.499998,0.333332 -0.666664,0.333332c-0.166666,0 -0.285685,-0.36861 -0.666664,-0.833332c-0.298864,-0.364555 -0.451183,-0.548813 -0.333332,-0.666664c0.117851,-0.117851 0.489023,-0.024048 0.83333,-0.166664c0.486927,-0.201691 0.989021,-0.357384 1.333328,-0.5c0.486927,-0.201691 0.979757,-0.248909 1.499996,-0.333332c0.329027,-0.053394 0.508915,-0.243252 0.83333,-0.166668c0.362707,0.085625 0.666662,0.166668 0.83333,0.166668c0.166664,0 0.499996,0 0.666664,0c0.333332,0 0.666664,0 0.999996,0c0.166668,0 0.512688,-0.063778 0.666664,0c0.217762,0.090199 0.5,0.166664 0.833332,0.166664c0.499996,0 0.666664,0 0.833328,0c0.166668,0 0.499996,0 0.666664,0.166668c0.166668,0.166668 0.303955,0.414375 0.666664,0.5c0.162209,0.038292 0.337791,-0.038292 0.5,0c0.362705,0.085621 0.833328,0.333332 0.999996,0.333332c0.333332,0 0.61557,-0.076469 0.833328,-0.166668c0.15398,-0.063782 0.282238,0.076469 0.5,0.166668c0.307961,0.12756 0.999996,0.166664 1.166664,0.166664c0.499996,0 0.715481,-0.117847 0.833328,0c0.117851,0.117851 -0.004459,0.038292 -0.166664,0c-0.362705,-0.085621 -0.801502,-0.386906 -1.333332,-0.666664c-0.794327,-0.417839 -1.654293,-0.582924 -2.499989,-0.666664c-0.331711,-0.032845 -0.833332,0.166664 -0.999996,0.166664c-0.333332,0 -0.666664,0.166668 -1.166664,0.166668c-0.166664,0 -0.333332,0 -0.499996,0c-0.166668,0 -0.335484,0.139965 -0.5,0.166664c-0.520237,0.084423 -0.833328,0.333336 -1.16666,0.5c-0.333336,0.166668 -0.382153,0.215485 -0.5,0.333332c-0.117851,0.117851 -0.508915,0.090084 -0.833332,0.166668c-0.362705,0.085621 -0.382145,0.215481 -0.499996,0.333332c-0.117851,0.117851 -0.333332,0 -0.666664,0c-0.333332,0 -0.499998,0 -0.666664,0c-0.166666,0 -0.382147,0.117851 -0.499998,0c-0.117851,-0.117851 -0.166666,-0.166668 -0.333332,-0.166668c-0.166666,0 -0.5,0 -0.666666,0c-0.166666,0 -0.333332,0 -0.499998,0c-0.166666,0 -0.303957,-0.081043 -0.666664,-0.166664c-0.324415,-0.076584 -0.637289,-0.081043 -0.999996,-0.166668c-0.162207,-0.038292 -0.28224,-0.076466 -0.499998,-0.166664c-0.15398,-0.063782 -0.358706,0.12756 -0.666664,0c-0.21776,-0.090199 -0.346018,-0.102886 -0.499998,-0.166668c-0.217758,-0.090199 -0.504457,-0.29504 -0.666664,-0.333332c-0.362707,-0.085625 -0.382149,-0.215485 -0.499998,-0.333332c-0.117851,-0.117851 -0.333332,0 -0.499998,0c-0.166666,0 -0.333332,0 -0.499998,0c-0.333332,0 -0.499998,0 -0.833332,0c-0.333332,0 -0.666664,0 -0.999996,0c-0.166666,0 -0.4098,0.11557 -0.499998,0.333332c-0.06378,0.15398 0.117851,0.382149 0,0.5c-0.117851,0.117851 -0.215481,0.215481 -0.333332,0.333332c-0.117851,0.117851 -0.666664,0 -0.83333,0c-0.499998,0 -0.83333,0 -1.333328,0c-0.333332,0 -0.551092,-0.076469 -0.333332,-0.166668c0.153978,-0.063782 0.607914,-0.328751 1.333328,-0.499996c0.64883,-0.153168 1.670715,-0.084553 2.49999,-0.166668c0.845699,-0.08374 1.303955,-0.247711 1.666662,-0.333332c0.324415,-0.076584 0.499998,0 0.666664,0c0.166666,0 0.397112,0.179352 0.333332,0.333332c-0.090199,0.217762 -0.171125,0.29504 -0.333332,0.333332c-0.362707,0.085625 -0.666664,0.166668 -0.999996,0.333332c-0.333332,0.166668 -0.499998,0.166668 -0.666664,0.166668c-0.166668,0 -0.358707,0.039104 -0.666666,0.166664c-0.21776,0.090199 -0.333332,0.166668 -0.499998,0.166668c-0.499998,0 -0.83333,-0.166668 -0.999996,-0.166668c-0.166666,0 -0.346018,0.063782 -0.499998,0c-0.217758,-0.090199 -0.333332,-0.333332 -0.499998,-0.333332c-0.166666,0 -0.333332,-0.166664 -0.499998,-0.166664c-0.333332,0 -0.499998,0 -0.666664,0c-0.166666,0 -0.337791,0.038292 -0.499998,0c-0.362707,-0.085625 -0.675581,-0.090084 -0.999996,-0.166668c-0.362707,-0.085621 -0.666664,-0.166664 -0.83333,-0.166664c-0.499999,0 -0.833331,0 -1.166663,0c-0.333332,0 -0.666664,0 -0.83333,0c-0.333332,0 -0.499997,0.166664 -0.833331,0.333332c-0.333331,0.166664 -0.382146,0.215481 -0.499998,0.333332c-0.11785,0.117851 -0.284518,0.215481 -0.166666,0.333332c0.11785,0.117851 0.333332,0 0.499998,0c0.333333,0 0.833331,-0.166668 1.666661,-0.333332c0.83333,-0.166668 0.999996,-0.333332 1.166662,-0.333332c0.166667,0 0.333333,0 0.499999,0c0.166666,0 0.243134,0.11557 0.333332,0.333332c0.06378,0.153976 0.166666,0.166664 0,0.166664l-0.166666,0l0,0.166668l-0.166666,0" id="svg_74" stroke-width="1.5" stroke="#1d771d" fill="none"/>
  <path stroke="#1d771d" d="m4.245572,50.384838c0,-0.187986 -0.122352,-0.202296 -0.198197,-0.375968c-0.107264,-0.245615 -0.354743,-0.390713 -0.594592,-0.939921c-0.169599,-0.388346 -0.320547,-0.57826 -0.396395,-0.751935c-0.107264,-0.245611 -0.137439,-0.462214 -0.396395,-0.563949c-0.183111,-0.07194 -0.335636,-0.274232 -0.594593,-0.375968c-0.183111,-0.07194 -0.364648,0.002427 -0.396395,0.187982c-0.100395,0.586783 -0.396395,1.315889 -0.396395,1.50387c0,0.375968 -0.058051,0.431028 -0.198197,0.563953c-0.140145,0.132921 -0.198197,0.187982 -0.396395,0.187982c-0.198198,0 -0.256248,-0.055056 -0.396395,-0.187982c-0.140148,-0.132925 -0.058589,-0.566699 0,-1.127903c0.099583,-0.95387 0.3329,-1.508724 0.396395,-1.879838c0.100395,-0.586783 0.198197,-0.939921 0.198197,-1.315889c0,-0.187982 -0.075845,-0.390278 0,-0.563949c0.107264,-0.245615 0.198197,-0.375968 0.198197,-0.563953c0,-0.187982 0,-0.375968 0,-0.563949c0,-0.187986 -0.151693,-0.404584 0,-0.751935c0.107264,-0.245615 0.198197,-0.563953 0.198197,-0.939921c0,-0.375968 0.198197,-0.563953 0.198197,-0.751935c0,-0.187986 -0.198197,-0.563953 -0.198197,-0.751935c0,-0.187986 0.140148,-0.431028 0,-0.563953c-0.140147,-0.132925 -0.256248,-0.055056 -0.396395,-0.187982c-0.140148,-0.132925 -0.000002,-0.375968 -0.198197,-0.375968c-0.198195,0 -0.101823,0.154847 0,0.563949c0.182146,0.73182 0.198197,1.315889 0.198197,1.50387c0,0.187986 0,0.375968 0,0.563953c0,0.375968 0.090934,0.694306 0.198197,0.939921c0.075845,0.173671 0,0.375968 0,0.563949c0,0.563953 0.068415,1.349156 0.396395,2.255805c0.287658,0.795185 0.792789,1.127903 0.990987,1.315889c0.198197,0.187982 0.335458,0.410935 0.594593,0.751935c0.16389,0.215665 0.396396,0.375968 0.594592,0.563949c0.198199,0.187986 0.320549,0.202296 0.396395,0.375968c0.107264,0.245615 0.454446,0.431028 0.594593,0.563953c0.140145,0.132921 -0.090934,0.433597 -0.198198,0.187982c-0.075846,-0.173671 -0.396395,-0.751935 -0.396395,-1.127903c0,-0.187982 0.141538,-0.148191 0.594593,0.375968c0.710813,0.822369 1.265862,1.488385 1.783777,1.691856c0.183111,0.07194 0.198198,0.187986 0.594593,0.187986c0.198197,0 0.396395,0 0.396395,-0.187986c0,-0.187986 -0.198197,-0.187986 -0.396395,-0.187986c-0.198197,0 -0.256248,-0.055056 -0.396395,-0.187982c-0.140149,-0.132925 -0.198198,-0.187986 -0.396395,-0.187986c-0.198197,0 -0.380203,-0.021079 -1.189185,-0.563949c-0.583366,-0.39147 -1.074005,-0.642691 -1.387383,-0.939921c-0.313377,-0.29723 -0.463286,-0.81021 -0.79279,-1.315884c-0.294719,-0.452287 -0.692395,-1.105073 -0.79279,-1.691856c-0.095243,-0.556669 -0.198197,-1.127903 -0.198197,-1.50387c0,-0.563949 -0.198198,-0.939917 -0.198198,-1.50387c0,-0.375968 0,-0.751935 0,-1.127903c0,-0.375968 -0.198197,-0.751935 -0.198197,-1.127903c0,-0.187986 0,-0.375968 0,-0.563953c0,-0.187982 -0.198197,-0.187982 -0.198197,-0.375968c0,-0.187982 0.140145,-0.431028 0,-0.563949c-0.140147,-0.132925 -0.152662,-0.193016 -0.198197,-0.375968c-0.101823,-0.409098 -0.396395,-0.563953 -0.396395,-0.751935c0,-0.187986 -0.122349,-0.390278 -0.198198,-0.563953c-0.107264,-0.245611 -0.198198,-0.375968 -0.198198,-0.563949c0,-0.187986 0,-0.375968 0,-0.563953c0,-0.187982 -0.198197,-0.187982 -0.198197,-0.375968c0,-0.187982 0,-0.375968 0,-0.563949l0,-0.187986l0,-0.187982" id="svg_75" stroke-width="1.5" fill="none"/>
  <path d="m45.749928,1.406332c0.333332,0 0.5,0 0.666664,0c0.166668,0 0.34602,0.063781 0.5,0c0.217758,-0.090199 0.333332,-0.166666 0.499996,-0.166666c0.166668,0 -0.002434,-0.049268 -0.499996,0c-0.845699,0.083741 -1.479755,0.248909 -1.999992,0.333332c-0.164516,0.026697 -0.333332,0.166665 -0.5,0.333332c-0.166664,0.166665 -0.117847,0.215483 0,0.333332c0.117851,0.117851 0.179356,0.102887 0.333332,0.166666c0.217762,0.090199 0.333332,0.166666 0.666664,0.166666c0.333332,0 0.715481,0.117852 0.833332,0c0.117851,-0.117851 0.11557,-0.243133 0.333332,-0.333332c0.153976,-0.063779 0.333332,0 0.499996,0c0.166668,0 0.337791,-0.038292 0.5,0c0.362705,0.085624 0.548813,0.048814 0.666664,0.166666c0.117851,0.117851 0.215481,0.048814 0.333332,0.166666c0.117851,0.117851 0.333332,0.499998 0.333332,0.833331c0,0.333332 0,0.499998 0,0.83333c0,0.166666 -0.063782,0.346019 0,0.499999c0.090199,0.217761 0.247711,0.303957 0.333332,0.666664c0.038292,0.162208 0.048817,0.382147 0.166668,0.499998c0.117847,0.117849 0.102882,0.179353 0.166664,0.333332c0.090199,0.217761 0.215485,0.451182 0.333332,0.333333c0.117851,-0.117851 0.026695,-0.335485 0,-0.499999c-0.084423,-0.520238 -0.247707,-0.803955 -0.333332,-1.166662c-0.038292,-0.162208 0.038292,-0.504457 0,-0.666665c-0.085621,-0.362706 -0.166664,-0.666664 -0.166664,-0.999996c0,-0.166666 -0.166668,-0.166666 -0.166668,-0.333332c0,-0.333333 -0.076466,-0.448906 -0.166664,-0.666664c-0.063782,-0.15398 -0.048817,-0.21548 -0.166668,-0.333332c-0.117851,-0.117851 -0.248909,-0.313092 -0.333332,-0.83333c-0.026695,-0.164514 -0.215481,-0.548814 -0.333332,-0.666664c-0.235703,-0.235701 -0.80407,-0.016315 -0.999996,-0.333332c-0.08762,-0.141775 -0.166668,-0.166666 -0.333332,-0.166666c-0.166668,0 -0.382149,0.048815 -0.5,0.166666c-0.117847,0.117849 -0.333332,-0.000002 -0.333332,0.166666c0,0.166668 0.5,0 1.166664,0c0.833328,0 1.333328,0 1.499992,0c0.166668,0 0.470627,0.081043 0.833332,0.166666c0.162209,0.038292 0.382149,0.048814 0.5,0.166666c0.117851,0.117851 -0.247711,0.303958 -0.333332,0.666664c-0.038292,0.162208 -0.012688,0.436218 -0.166668,0.499998c-0.217758,0.090198 -0.195515,-0.308786 -0.333332,-0.499998c-0.217907,-0.30233 -0.333332,-0.666663 -0.5,-0.83333c-0.166664,-0.166665 -0.333332,-0.166666 -0.499996,-0.166666c-0.166668,0 -0.333332,0 -0.5,0c-0.166664,0 -0.833328,0 -1.333328,0c-0.333332,0 -0.382145,0.048815 -0.499996,0.166666c-0.117851,0.117852 -0.333332,0 -0.5,0c-0.166664,0 -0.34602,-0.063779 -0.499996,0c-0.217762,0.090199 -0.160652,0.270297 0.166664,0.333332c0.881332,0.169729 1.313087,0.415575 1.833328,0.499998c0.164513,0.026697 0.333332,0 0.499996,0c0.166668,0 0.333332,0.166666 0.5,0.166666l0.166664,0.166666l0.166668,0" id="svg_76" stroke-width="1.5" stroke="#1d771d" fill="none"/>
  <path d="m0.250091,2.73966c-0.166666,-0.166666 0.094228,-0.358496 -0.333332,-0.666664c-0.135207,-0.097451 -0.243133,-0.115572 -0.333332,-0.333332c-0.06378,-0.153979 0.048815,-0.215481 0.166666,-0.333332c0.117851,-0.117851 0.102886,-0.346019 0.166666,-0.499998c0.090199,-0.21776 0.243133,-0.282238 0.333332,-0.499998c0.06378,-0.153979 0.215481,-0.451183 0.333332,-0.333332c0.117851,0.117851 0.153979,0.230446 0,0.166666c-0.21776,-0.090199 -0.333332,0.333332 -0.333332,0.499998c0,0.166666 0.048815,0.382148 0.166666,0.499998c0.117851,0.117851 0.333332,0.166666 0.499998,0.333332c0.166666,0.166666 0.333332,0.166666 0.499998,0.166666c0.166666,0 0.382148,0.284517 0.499998,0.166666c0.117851,-0.117851 0.102886,-0.179353 0.166666,-0.333332c0.090199,-0.21776 0.333332,-0.333332 0.333332,-0.499998c0,-0.166666 -0.004458,-0.29504 -0.166666,-0.333332c-0.362707,-0.085624 -0.666664,0 -1.166662,0c-0.333332,0 -0.397113,-0.179353 -0.333332,-0.333332c0.090199,-0.21776 0.68004,-0.448208 1.166663,-0.333332c0.362707,0.085624 0.499998,0.166666 0.666664,0.333332c0.166666,0.166666 0.215481,0.215481 0.333332,0.333332c0.117851,0.117851 0.333332,0 0.499998,0c0.333332,0 0.499998,0.166666 0.666664,0.166666c0.166666,0 0.333332,-0.166666 0.499998,-0.166666c0.333333,0 0.666665,0 0.999997,0c0.166666,0 0.215481,-0.048815 0.333332,-0.166666c0.117851,-0.117851 0.333332,0 0.499998,0c0.166667,0 0.303957,0.081043 0.666665,0.166666c0.324415,0.076584 0.451183,0.215481 0.333332,0.333332c-0.117851,0.117851 -0.153979,0.102886 0,0.166666c0.21776,0.090199 0.215481,0.215482 0.333332,0.333332c0.117851,0.117851 0.215481,0.048815 0.333332,0.166666c0.11785,0.117851 0.333332,0 0.499998,0c0.166666,0 0.166666,-0.166666 0.166666,-0.333332c0,-0.166666 0.166666,-0.166666 0.166666,-0.333332c0,-0.166666 -0.048816,-0.215482 -0.166666,-0.333332c-0.11785,-0.117851 -0.166666,-0.166666 -0.166666,-0.333332l0.166666,0l0,-0.166666l0.166666,0" id="svg_77" stroke-width="1.5" stroke="#1d771d" fill="none"/>
  <polyline stroke-linecap="round" id="svg_78" points="0.2500906623155572,2.7396600455625872 0.2500906623155572,2.7396600455625872 0.2500906623155572,2.7396600455625872 " stroke-width="1.5" stroke="#1d771d" fill="none"/>
  <path d="m0.083425,9.07297c0,0 0.076467,0.115573 0.166666,0.333333c0.06378,0.153979 0.076467,0.282238 0.166666,0.499998c0.06378,0.153979 0,0.333332 0,0.499998c0,0.166666 0.076467,0.282238 0.166666,0.499998c0.06378,0.153979 -0.166666,0.166666 -0.166666,0.333332c0,0.166666 0.038292,0.33779 0,0.499998c-0.085624,0.362707 -0.166666,0.499998 -0.166666,0.666664c0,0.166666 0.081043,0.303957 0.166666,0.666665c0.038292,0.162208 -0.051242,0.364333 0.166666,0.666664c0.137817,0.191211 0.243133,0.282238 0.333332,0.499998c0.06378,0.153979 0.06378,0.346019 0,0.499998c-0.090199,0.21776 -0.166666,0.499998 -0.333332,0.83333c-0.166666,0.333332 -0.269552,0.512685 -0.333332,0.666665c-0.090199,0.21776 -0.166666,0.333332 -0.166666,0.499998c0,0.166666 0,0.333332 0,0.499998c0,0.166666 0,0.333332 0,0.499998c0,0.166666 0.081043,0.303957 0.166666,0.666664c0.038292,0.162207 0.038292,0.337791 0,0.499998c-0.085624,0.362707 -0.166666,0.499998 -0.166666,0.666664c0,0.333332 -0.086575,0.506454 -0.166666,0.999996c-0.084423,0.520239 -0.166666,0.83333 -0.333332,1.166662c-0.166666,0.333332 -0.166666,0.666666 -0.166666,0.833332c0,0.166666 -0.166666,0.166666 -0.166666,0.333332c0,0.166666 0.048815,0.215481 0.166666,0.333332c0.117851,0.117851 0.333332,0 0.499998,0c0.333332,0 0.548814,0.117851 0.666664,0c0.117851,-0.117851 0.166666,-0.333332 0.166666,-0.499998c0,-0.166666 0,-0.666666 -0.166666,-1.166664c-0.166666,-0.499998 -0.166666,-0.83333 -0.166666,-0.999996c0,-0.166666 0.038292,0.004459 0,0.166666c-0.085624,0.362707 -0.141205,0.840218 -0.333332,1.499994c-0.147355,0.506027 -0.333332,0.833332 -0.333332,0.999998c0,0.166666 -0.166666,0.333332 -0.166666,0.499998c0,0.166666 0,0.333332 0,0.499998c0,0.166666 0,0.333332 0,0.499998c0,0.166666 0.243133,0.282238 0.333332,0.499998c0.06378,0.15398 0.048815,0.382147 0.166666,0.499998c0.117851,0.117851 0.215481,0.048815 0.333332,0.166666c0.117851,0.117851 -0.076467,0.282238 -0.166666,0.499998c-0.06378,0.15398 0,0 0.166666,-0.333332c0.166666,-0.333332 0.166666,-1.166662 0,-1.66666c-0.166666,-0.499998 -0.333332,-0.999996 -0.333332,-1.166662c0,-0.333332 0.166666,-0.666664 0,-0.666664c-0.166666,0 0.166666,0.333332 0.166666,0.666664c0,0.333332 -0.037362,0.640944 0,1.166662c0.026419,0.371738 0.085624,0.637289 0,0.999996c-0.076584,0.324415 0,0.666664 0,0.83333c0,0.166666 -0.166666,0.166666 -0.166666,0.333332c0,0.166666 0,0.333332 0,0.499998c0,0.166666 -0.117851,0.382147 0,0.499998c0.117851,0.117851 0.166666,0.166666 0.166666,0.333332l0,0.166666l0.166666,0" id="svg_79" stroke-width="1.5" stroke="#1d771d" fill="none"/>
  <path d="m49.083252,23.906252c0,0 0.039104,-0.192039 0.166664,-0.499998c0.090199,-0.21776 0.333332,-0.499998 0.333332,-0.666664c0,-0.166666 0.038292,-0.337791 0,-0.5c-0.085621,-0.362707 -0.166664,-0.499998 -0.166664,-0.666664c0,-0.166666 -0.048817,-0.215481 -0.166668,-0.333332c-0.117851,-0.117851 -0.081043,-0.303957 -0.166664,-0.666664c-0.076584,-0.324415 0,-0.499998 0,-0.666664c0,-0.166666 0,-0.333332 0,-0.499998c0,-0.166666 0,-0.333332 0,-0.499998c0,-0.166666 0.076584,-0.342249 0,-0.666664c-0.085625,-0.362707 -0.166668,-0.499998 -0.166668,-0.666664c0,-0.166666 -0.117851,-0.382147 0,-0.499998c0.117851,-0.117851 0.102886,-0.179352 0.166668,-0.333332c0.090199,-0.217758 0.102882,-0.34602 0.166664,-0.499998c0.090199,-0.21776 0.102886,-0.34602 0.166668,-0.499999c0.090199,-0.217759 0.166664,-0.499998 0.166664,-0.666664c0,-0.166666 0,-0.333332 0,-0.499998c0,-0.166666 -0.081043,-0.470624 -0.166664,-0.83333c-0.076584,-0.324415 0,-0.499998 0,-0.833331c0,-0.166666 -0.166668,-0.499998 -0.166668,-0.666664c0,-0.333332 0.076469,-0.448903 0.166668,-0.666664c0.063782,-0.153979 0,-0.333332 0,-0.499998c0,-0.166666 0,-0.333332 0,-0.666664c0,-0.166666 0,-0.333332 0,-0.499998c0,-0.166666 -0.000004,-0.333332 -0.166668,-0.333332c-0.166664,0 -0.125935,0.33583 -0.166664,0.666664c-0.083961,0.682034 -0.249374,1.484625 -0.333336,2.166658c-0.081455,0.66167 0,0.999997 0,1.333329c0,0.166666 0,0.499998 0,0.83333c0,0.333332 0,0.499998 0,0.83333c0,0.166666 0,0.333332 0,0.666665c0,0.333332 -0.038292,0.671124 0,0.83333c0.085625,0.362707 0.215485,0.382147 0.333336,0.499998c0.117851,0.117851 0.076466,0.28224 0.166664,0.499998c0.063782,0.15398 0.166668,0.166666 0.166668,0.333332c0,0.166666 0.166664,0.333332 0.166664,0.499998c0,0.333332 -0.081043,0.470623 -0.166664,0.83333c-0.038292,0.162209 0,0.333332 0,0.499998l0,0.166666l0.166664,0l0,0.166666" id="svg_80" stroke-width="1.5" stroke="#1d771d" fill="none"/>
  <path d="m48.749916,34.739548c0,0 0.04882,0.048817 0.166668,0.166664c0.117851,0.117851 0.090084,0.175583 0.166668,0.5c0.085621,0.362705 0.166664,0.666664 0.166664,0.999996c0,0.499996 0,0.833328 0,0.833328c0,0.166668 0,0.5 0,0.833332c0,0.333332 -0.294224,0.692036 -0.166664,0.999996c0.090199,0.217758 0.090199,0.282238 0,0.499996c-0.12756,0.307961 0,0.5 0,0.666664c0,0.333332 -0.081043,0.470623 -0.166668,0.833332c-0.038292,0.162209 -0.039108,0.525372 -0.166668,0.833332c-0.090199,0.217758 -0.166664,0.499996 -0.166664,0.666664c0,0.166664 0,0.333332 0,0.666664c0,0.333332 -0.038292,0.504456 0,0.666664c0.085621,0.362705 0.166664,0.499996 0.166664,0.666664c0,0.166664 0.166668,0.333332 0.166668,0.499996c0,0.166668 0.04882,0.215485 0.166668,0.333332c0.117847,0.117847 0.269554,-0.012688 0.333332,-0.166664c0.090199,-0.217762 0.333332,-0.166668 0.333332,-0.333332c0,-0.166668 -0.146305,-0.334579 -0.166668,-0.5c-0.083961,-0.682034 -0.247707,-0.803951 -0.333332,-1.16666c-0.038292,-0.162209 -0.117851,-0.382149 0,-0.5c0.117851,-0.117851 0.166668,-0.166664 0.166668,-0.333332c0,-0.166664 0.076466,-0.282238 0.166664,-0.499996c0.12756,-0.307961 0.081043,-0.470623 0.166668,-0.833332c0.076584,-0.324413 0,-0.5 0,-0.666664c0,-0.166668 0.063782,-0.34602 0,-0.5c-0.090199,-0.217758 -0.166668,-0.333332 -0.166668,-0.499996c0,-0.166668 -0.048817,-0.45118 -0.166664,-0.333332c-0.117847,0.117847 0,0.499996 -0.166668,1.16666c-0.166664,0.666664 -0.166664,1.166664 -0.166664,1.499996c0,0.333332 0.076466,0.61557 0.166664,0.833332c0.063778,0.153976 -0.024048,0.489021 -0.166664,0.833328c-0.201691,0.486927 -0.333332,0.999996 -0.5,1.499996c-0.166664,0.499996 -0.415577,0.979755 -0.5,1.499992c-0.080093,0.493542 -0.166664,0.999996 -0.166664,1.333328c0,0.5 0.076466,0.782238 0.166664,1c0.12756,0.307961 0.04882,0.382149 0.166668,0.499996c0.117847,0.117847 0.11557,0.243134 0.333332,0.333332c0.307961,0.12756 0.512688,0.230446 0.666664,0.166668c0.217762,-0.090199 0.590199,-0.11557 0.5,-0.333332c-0.063782,-0.15398 -0.166668,-0.333332 -0.166668,-0.666664c0,-0.5 -0.209415,-0.966164 -0.333332,-1.166664c-0.277084,-0.44833 -0.333332,-0.999996 -0.333332,-1.166664c0,-0.166664 0.166664,-0.499996 0,-0.499996c-0.333332,0 -0.084423,0.813087 0,1.333328c0.08009,0.493542 0.102886,0.846016 0.166668,0.999996c0.090199,0.217758 0.243134,0.282238 0.333332,0.5c0.063778,0.153976 -0.166664,0.499996 0,0.499996c0.166664,0 -0.082245,-0.313091 -0.166668,-0.833332c-0.08009,-0.493542 -0.230442,-1.012684 -0.166664,-1.16666c0.090199,-0.217762 0.048813,-0.382149 0.166664,-0.5c0.117851,-0.117851 0.166668,-0.166664 0.166668,-0.333332c0,-0.166664 0.166664,-0.166664 0.166664,-0.333332l0,-0.166664" id="svg_81" stroke-width="1.5" stroke="#1d771d" fill="none"/>
  <path stroke="#1d771d" d="m48.749916,23.239588c0,0 0,-0.259261 0,-0.518519c0,-0.259258 -0.166664,-0.259258 -0.166664,-0.518516c0,-0.259258 0,-0.259258 0,-0.518516c0,-0.259258 0,-0.518516 0,-0.777775l-0.166668,0" id="svg_82" fill-opacity="null" stroke-opacity="null" stroke-width="1.5" fill="none"/>
 </g>
</svg>